<svg width="30" height="40" viewBox="0 0 30 40" fill="none" xmlns="http://www.w3.org/2000/svg"><path d="M0 3c0-1.65685 1.34315-3 3-3h20l7 7v30c0 1.6569-1.3431 3-3 3H3c-1.65685 0-3-1.3431-3-3V3z" fill="#D0D5DA"/><path d="M23 0l7 7h-4c-1.6569 0-3-1.34315-3-3V0z" fill="#646464"/><path fill-rule="evenodd" clip-rule="evenodd" d="M7.5 23c-.27614 0-.5.2239-.5.5v4c0 .2761.22386.5.5.5h15c.2761 0 .5-.2239.5-.5v-4c0-.2761-.2239-.5-.5-.5h-2c-.2761 0-.5-.2239-.5-.5s.2239-.5.5-.5h2c.8284 0 1.5.6716 1.5 1.5v4c0 .8284-.6716 1.5-1.5 1.5h-15c-.82843 0-1.5-.6716-1.5-1.5v-4c0-.8284.67157-1.5 1.5-1.5h2c.27614 0 .5.2239.5.5s-.22386.5-.5.5h-2z" fill="#646464"/><path fill-rule="evenodd" clip-rule="evenodd" d="M20 20.0001L15 14l-5 6.0001h3v4c0 .5523.4477 1 1 1h2c.5523 0 1-.4477 1-1v-4h3z" fill="#646464"/></svg>