<svg width="30" height="40" viewBox="0 0 30 40" fill="none" xmlns="http://www.w3.org/2000/svg"><path d="M0 3c0-1.65685 1.34315-3 3-3h20l7 7v30c0 1.6569-1.3431 3-3 3H3c-1.65685 0-3-1.3431-3-3V3z" fill="#6AAA1E"/><path d="M23 0l7 7h-4c-1.6569 0-3-1.34315-3-3V0z" fill="#000" fill-opacity=".25"/><path fill-rule="evenodd" clip-rule="evenodd" d="M6 15h18v13H7.00001v-1H12v-3H7v4H6V15zm7 12h4v-3h-4v3zm5 0h5v-3h-5v3zm5-7v3h-5v-3h5zm-6 0v3h-4v-3h4zm-5 0v3H7v-3h5zm11-1v-3h-5v3h5zm-10-3h4v3h-4v-3zm-1 3v-3H7v3h5z" fill="#fff" fill-opacity=".95"/></svg>