<svg width="188" height="188" viewBox="0 0 188 188" fill="none" xmlns="http://www.w3.org/2000/svg">
<g style="mix-blend-mode:overlay" opacity="0.2">
<path fill-rule="evenodd" clip-rule="evenodd" d="M94 188C145.915 188 188 145.915 188 94C188 42.0852 145.915 0 94 0C42.0852 0 0 42.0852 0 94C0 145.915 42.0852 188 94 188ZM117.801 147.466C117.692 154.349 117.754 163.709 117.801 170.592C112.082 173.723 97.9497 174.074 94.1293 174.074C94.1293 174.074 83.7585 174.156 71.7182 170.592C71.9823 164.538 72.236 157.216 72.236 151.889C70.7861 151.889 69.3722 151.919 67.9841 151.949C65.0351 152.011 62.2029 152.072 59.3899 151.835C50.9138 151.087 44.3897 147.262 41.0293 138.683C38.8909 133.211 35.6547 128.574 30.6788 125.322C29.8684 124.799 29.3192 123.834 28.7701 122.869C28.5158 122.422 28.2614 121.975 27.9812 121.573C28.5253 121.421 29.0682 121.268 29.611 121.115C30.6382 120.826 31.6649 120.537 32.6982 120.257C32.8111 120.239 32.933 120.277 33.0566 120.316C33.12 120.336 33.1838 120.356 33.247 120.369C39.1187 121.455 43.059 125.204 46.1295 130.221C51.8717 139.63 60.4979 142.588 70.5325 138.565C71.3247 138.255 72.293 137.635 72.5985 136.897C73.7569 134.054 74.8151 131.176 75.9115 128.195C76.2898 127.166 76.6727 126.125 77.0657 125.069C77.0592 125.067 77.0527 125.066 77.0462 125.065C77.0467 125.064 77.0472 125.063 77.0477 125.062C76.3018 124.928 75.5577 124.804 74.8139 124.681C73.7828 124.509 72.7523 124.338 71.7182 124.14C61.4869 122.134 52.2704 118.272 45.3321 109.693C36.4107 98.6481 31.616 69.8133 44.8557 54.5535C45.4512 53.8742 45.7049 52.398 45.4615 51.478C43.758 45.1505 43.9237 38.8551 45.591 32.5651C46.9165 27.5747 47.3514 27.318 52.348 28.3236C58.8099 29.6393 64.4123 32.9341 70.0148 36.3252C71.2523 37.074 73.0697 37.5179 74.4211 37.1863C86.356 34.3301 98.3944 33.5171 110.355 36.3038C115.787 37.5875 120.043 36.8975 124.615 33.7257C129.358 30.4523 134.738 28.3236 140.609 27.9866C142.282 27.8743 143.183 28.4145 143.726 30.1635C145.922 37.1703 146.47 44.1717 144.586 51.3389C144.342 52.2268 144.368 53.6121 144.881 54.2219C151.964 62.8921 153.864 72.9904 153.186 83.998C151.861 105.623 141.474 118.652 121.477 123.396C119.397 123.89 117.285 124.257 115.038 124.647C114.024 124.824 112.982 125.005 111.903 125.204C117.739 131.735 117.915 139.549 117.801 147.466ZM77.3882 125.14C77.3883 125.14 77.3857 125.138 77.3795 125.133C77.3848 125.136 77.388 125.139 77.3882 125.14Z" fill="url(#paint0_linear)"/>
</g>
<defs>
<linearGradient id="paint0_linear" x1="-20.6972" y1="-34.0642" x2="205.248" y2="202.661" gradientUnits="userSpaceOnUse">
<stop stop-color="white"/>
<stop offset="1" stop-color="white" stop-opacity="0.2"/>
</linearGradient>
</defs>
</svg>
