<svg width="64" height="60" viewBox="0 0 64 60" fill="none" xmlns="http://www.w3.org/2000/svg">
<path fill-rule="evenodd" clip-rule="evenodd" d="M30.0443 46.6172L16.8434 40.1856C15.7189 39.6241 15.7189 38.7564 16.8434 38.2459L21.4393 36L29.9954 40.1856C31.1199 40.7471 32.929 40.7471 34.0046 40.1856L42.5607 36L47.1566 38.2459C48.2811 38.8074 48.2811 39.6752 47.1566 40.1856L33.9557 46.6172C32.929 47.1276 31.1199 47.1276 30.0443 46.6172Z" fill="url(#paint0_linear)"/>
<path fill-rule="evenodd" clip-rule="evenodd" d="M30.0015 38.5401L16.8408 31.5157C15.7197 30.9024 15.7197 29.9547 16.8408 29.3972L21.3252 27L30.0015 31.5157C31.1226 32.1289 32.9261 32.1289 33.9985 31.5157L42.6748 27L47.1592 29.3972C48.2803 30.0105 48.2803 30.9582 47.1592 31.5157L33.9985 38.5401C32.8774 39.1533 31.0739 39.1533 30.0015 38.5401Z" fill="url(#paint1_linear)"/>
<path fill-rule="evenodd" clip-rule="evenodd" d="M30.0015 29.6321L16.8408 23.4505C15.7197 22.9109 15.7197 22.0769 16.8408 21.5863L30.0015 15.4047C31.1226 14.8651 32.9261 14.8651 33.9985 15.4047L47.1592 21.5863C48.2803 22.1259 48.2803 22.9599 47.1592 23.4505L33.9985 29.6321C32.8774 30.1226 31.0739 30.1226 30.0015 29.6321Z" fill="url(#paint2_linear)"/>
<path d="M55.6741 43.026C54.3082 42.6662 53.9399 41.7737 53.9552 40.5501C53.9859 35.9293 53.9706 31.2941 53.9706 26.6733C53.9706 25.0754 54.4617 24.4996 56.2266 24.1974C55.7048 16.7839 52.4205 10.738 45.8826 6.52026C37.7178 1.26608 29.016 0.834228 20.2987 5.22471C11.2899 9.74475 7.88279 18.1946 7.8521 24.1542C8.28182 24.2981 8.81897 24.3413 9.11057 24.6148C9.5096 25.0035 9.97002 25.5505 9.98537 26.0399C10.0621 30.9054 10.0468 35.771 10.0468 40.6509C10.0468 42.3783 9.34078 43.026 7.49911 43.026C6.91592 43.026 6.31737 43.026 5.73418 43.026C2.60334 43.026 0.316599 41.1979 0.132433 38.2469C-0.0517345 35.1808 -0.0363872 32.1002 0.132433 29.0341C0.270558 26.3278 2.32709 24.5284 5.25841 24.2117C5.79557 16.1505 9.40217 9.57201 16.3852 4.76407C21.5879 1.16531 27.5273 -0.360559 33.9885 0.0712921C47.8777 1.02136 58.3445 11.7888 58.7589 24.0822C59.603 24.3557 60.4778 24.4996 61.1991 24.8883C62.9334 25.8528 63.8389 27.4074 63.9156 29.2356C64.023 32.1866 64.0384 35.1376 63.9002 38.0886C63.8082 40.0319 62.8106 41.6297 60.8922 42.5654C60.3397 42.8245 59.6798 42.9685 59.0659 42.9973C58.452 43.026 58.2525 43.2132 58.1143 43.7458C56.7791 48.6545 53.8631 52.5124 49.3204 55.2762C46.7267 56.8453 43.7954 57.493 40.8026 57.9249C40.6031 57.9537 40.4036 57.9969 40.1887 57.9969C39.3753 58.0113 38.7308 58.1984 38.2703 58.9757C37.8406 59.6811 36.9812 59.9834 36.091 59.9834C34.0498 59.9978 31.9933 60.0122 29.9521 59.9834C28.2946 59.9546 27.0515 58.7598 27.0055 57.2339C26.9748 55.7081 28.2332 54.4125 29.9214 54.3693C31.9933 54.3261 34.0652 54.3405 36.1371 54.3693C37.0272 54.3837 37.7485 54.7724 38.3471 55.3914C38.5159 55.5785 38.8535 55.7656 39.0837 55.7369C43.9181 55.3338 48.2767 53.9663 51.6071 50.4251C53.5409 48.3666 55.3058 45.2861 55.6741 43.026Z" fill="url(#paint3_linear)"/>
<defs>
<linearGradient id="paint0_linear" x1="16.0001" y1="35.5703" x2="22.5651" y2="55.4146" gradientUnits="userSpaceOnUse">
<stop stop-color="#FF8E3D"/>
<stop offset="1" stop-color="#FF6F3D"/>
</linearGradient>
<linearGradient id="paint1_linear" x1="16.0001" y1="26.5312" x2="23.6692" y2="47.7811" gradientUnits="userSpaceOnUse">
<stop stop-color="#FF8E3D"/>
<stop offset="1" stop-color="#FF6F3D"/>
</linearGradient>
<linearGradient id="paint2_linear" x1="16.0001" y1="14.4141" x2="27.2536" y2="39.3593" gradientUnits="userSpaceOnUse">
<stop stop-color="#FF8E3D"/>
<stop offset="1" stop-color="#FF6F3D"/>
</linearGradient>
<linearGradient id="paint3_linear" x1="0.00012322" y1="-2.34375" x2="59.7279" y2="63.8546" gradientUnits="userSpaceOnUse">
<stop stop-color="#FF8E3D"/>
<stop offset="1" stop-color="#FF6F3D"/>
</linearGradient>
</defs>
</svg>
