<svg width="153" height="28" viewBox="0 0 153 28" fill="none" xmlns="http://www.w3.org/2000/svg">
<path fill-rule="evenodd" clip-rule="evenodd" d="M13.3411 27.6567L0.801848 21.8897C-0.266306 21.3862 -0.266306 20.6081 0.801848 20.1504L5.16735 18.1365L13.2946 21.8897C14.3628 22.3932 16.0811 22.3932 17.1028 21.8897L25.2301 18.1365L29.5956 20.1504C30.6637 20.6539 30.6637 21.432 29.5956 21.8897L17.0564 27.6567C16.0811 28.1144 14.3628 28.1144 13.3411 27.6567Z" fill="#FF6F3D"/>
<path fill-rule="evenodd" clip-rule="evenodd" d="M13.3411 20.5623L0.801848 14.7953C-0.266306 14.2918 -0.266306 13.5137 0.801848 13.056L5.07447 11.0879L13.3411 14.8868C14.4092 15.3903 16.1275 15.3903 17.1493 14.8868L25.4158 11.0879L29.6885 13.056C30.7566 13.5595 30.7566 14.3376 29.6885 14.7953L17.1493 20.5623C16.0811 21.0658 14.3628 21.0658 13.3411 20.5623Z" fill="#95C038"/>
<path fill-rule="evenodd" clip-rule="evenodd" d="M13.3411 13.651L0.801848 7.88393C-0.266306 7.38045 -0.266306 6.60236 0.801848 6.14466L13.3411 0.377605C14.4092 -0.125868 16.1275 -0.125868 17.1493 0.377605L29.6885 6.14466C30.7566 6.64813 30.7566 7.42622 29.6885 7.88393L17.1493 13.651C16.0811 14.1087 14.3628 14.1087 13.3411 13.651Z" fill="#5DC0E8"/>
<path d="M38.1537 13.9432C38.1537 11.5581 38.8451 9.758 40.274 8.58794C41.6568 7.37287 43.3161 6.78784 45.2059 6.78784C47.0957 6.78784 48.709 7.37287 50.0918 8.58794C51.4746 9.80301 52.166 11.5581 52.166 13.9882C52.166 16.3734 51.4746 18.1735 50.0918 19.3435C48.709 20.5586 47.0496 21.1436 45.2059 21.1436C43.3161 21.1436 41.7028 20.5586 40.274 19.3435C38.8451 18.1285 38.1537 16.3284 38.1537 13.9432ZM41.1958 13.9432C41.1958 15.6083 41.5185 16.7784 42.1177 17.5434C42.763 18.3085 43.4544 18.8035 44.1919 18.9835C44.3762 19.0285 44.5145 19.0735 44.6989 19.0735C44.8372 19.0735 45.0215 19.1185 45.1598 19.1185C45.3442 19.1185 45.4825 19.1185 45.6668 19.0735C45.8512 19.0735 45.9895 19.0285 46.1739 18.9835C46.9114 18.8035 47.6027 18.3085 48.202 17.5434C48.8012 16.7784 49.1238 15.5633 49.1238 13.9882C49.1238 12.3681 48.8012 11.1981 48.202 10.433C47.6027 9.668 46.9114 9.17297 46.1739 8.99296C45.9895 8.94796 45.8051 8.90296 45.6668 8.90296C45.4825 8.90296 45.3442 8.85795 45.1598 8.85795C44.9754 8.85795 44.8372 8.85795 44.6989 8.90296C44.5606 8.90296 44.3762 8.94796 44.1919 8.99296C43.4544 9.17297 42.763 9.668 42.1177 10.433C41.5185 11.1081 41.1958 12.3231 41.1958 13.9432Z" fill="white"/>
<path d="M53.687 6.92285H57.4666L62.4447 15.7433L63.1822 17.6784H63.2283L63.1822 15.1583V6.92285H66.086V20.9636H62.3064L57.3284 11.7831L56.5909 10.208H56.5448L56.5909 12.6832V20.9636H53.687V6.92285Z" fill="white"/>
<path d="M69.082 6.92285H71.9859V18.5785H77.7014V20.9636H69.082V6.92285Z" fill="white"/>
<path d="M75.9038 6.92285H79.2686L82.2185 11.8281L82.6795 12.8182H82.7717L83.2326 11.8281L86.2286 6.92285H89.3169L84.1084 15.2483V20.9636H81.2045V15.2033L75.9038 6.92285Z" fill="white"/>
<path d="M88.9482 13.9432C88.9482 11.5581 89.6396 9.758 91.0685 8.58794C92.4513 7.37287 94.1107 6.78784 96.0005 6.78784C97.8903 6.78784 99.5035 7.37287 100.886 8.58794C102.269 9.803 102.961 11.5581 102.961 13.9882C102.961 16.3734 102.269 18.1735 100.886 19.3435C99.5035 20.5586 97.8442 21.1436 96.0005 21.1436C94.1107 21.1436 92.4974 20.5586 91.0685 19.3435C89.6857 18.1285 88.9482 16.3284 88.9482 13.9432ZM91.9904 13.9432C91.9904 15.6083 92.313 16.7784 92.9122 17.5434C93.5575 18.3085 94.2028 18.8035 94.9864 18.9835C95.1708 19.0285 95.3091 19.0735 95.4935 19.0735C95.6317 19.0735 95.8161 19.1185 95.9544 19.1185C96.1388 19.1185 96.277 19.1185 96.4614 19.0735C96.6458 19.0735 96.7841 19.0285 96.9684 18.9835C97.7059 18.8035 98.3973 18.3085 98.9965 17.5434C99.5957 16.7784 99.9184 15.5633 99.9184 13.9882C99.9184 12.3681 99.5957 11.1981 98.9965 10.433C98.3973 9.668 97.7059 9.17297 96.9684 8.99296C96.7841 8.94796 96.5997 8.90296 96.4614 8.90296C96.277 8.90296 96.1388 8.85795 95.9544 8.85795C95.77 8.85795 95.6317 8.85795 95.4935 8.90296C95.3552 8.90296 95.1708 8.94796 94.9864 8.99296C94.2489 9.17297 93.5575 9.668 92.9122 10.433C92.313 11.1081 91.9904 12.3231 91.9904 13.9432Z" fill="white"/>
<path d="M104.988 6.92285H113.009V9.26298H107.892V12.6832H112.778V15.0683H107.892V20.9636H104.988V6.92285Z" fill="white"/>
<path d="M115.175 6.92285H123.195V9.26298H118.079V12.6832H122.965V15.0683H118.079V20.9636H115.175V6.92285Z" fill="white"/>
<path d="M124.901 20.9636V6.92285H127.805V20.9636H124.901Z" fill="white"/>
<path d="M140.6 7.23777V9.6679C140.093 9.48789 139.586 9.35288 139.032 9.26288C138.479 9.17287 137.834 9.12787 137.189 9.12787C135.668 9.12787 134.515 9.57789 133.686 10.5229C132.856 11.423 132.441 12.5931 132.441 13.9881C132.441 15.3382 132.81 16.4633 133.593 17.3633C134.377 18.2634 135.483 18.7584 136.912 18.7584C137.419 18.7584 137.926 18.7134 138.525 18.6684C139.125 18.5784 139.724 18.4434 140.369 18.1734L140.553 20.5585C140.461 20.6035 140.323 20.6485 140.185 20.6935C140 20.7385 139.816 20.7835 139.586 20.8285C139.217 20.9185 138.756 20.9635 138.203 21.0535C137.65 21.0985 137.097 21.1435 136.497 21.1435C136.405 21.1435 136.313 21.1435 136.267 21.1435C136.175 21.1435 136.082 21.1435 136.036 21.1435C134.377 21.0535 132.856 20.4235 131.473 19.3434C130.09 18.2184 129.399 16.4633 129.399 14.1231C129.399 11.828 130.09 10.0279 131.427 8.76785C132.764 7.50778 134.607 6.87775 136.866 6.87775C137.465 6.87775 138.018 6.87775 138.479 6.92275C138.986 6.96775 139.447 7.05776 139.954 7.14776C140.046 7.19276 140.185 7.19276 140.277 7.23777C140.369 7.19276 140.461 7.23777 140.6 7.23777Z" fill="white"/>
<path d="M142.904 6.92291H151.524V9.12803H145.854V12.6382H150.971V14.7983H145.854V18.7586H151.524V20.9637H142.904V6.92291Z" fill="white"/>
</svg>
