<svg width="16" height="16" viewBox="0 0 16 16" fill="none" xmlns="http://www.w3.org/2000/svg"><path d="M2.5 1c0-.276142.22386-.5.5-.5h7.2929L13.5 3.70711V15c0 .2761-.2239.5-.5.5H3c-.27614 0-.5-.2239-.5-.5V1Z" fill="#fff" stroke="#BBB"/><path d="M9.5 1v2.7c0 .28003 0 .42004.0545.527.04793.09408.12442.17057.2185.2185.10696.0545.247.0545.527.0545H13" stroke="#BBB"/><path fill-rule="evenodd" clip-rule="evenodd" d="M11 7H5v1h6V7ZM5 9h4v1H5V9Zm0 2h4v1H5v-1Z" fill="#287CA9"/><path d="M10 9h5v5h-5V9Z" fill="#287CA9"/><path fill-rule="evenodd" clip-rule="evenodd" d="M11 10h1v1.2163h1V10h1v3h-3v-3Z" fill="#fff"/></svg>