<svg width="248" height="53" viewBox="0 0 248 53" fill="none" xmlns="http://www.w3.org/2000/svg">
<path fill-rule="evenodd" clip-rule="evenodd" d="M24.9111 46.0096L7.13565 37.771C5.62145 37.0517 5.62145 35.9401 7.13565 35.2863L13.3241 32.4093L24.8453 37.771C26.3595 38.4902 28.7954 38.4902 30.2437 37.771L41.7648 32.4093L47.9533 35.2863C49.4675 36.0055 49.4675 37.1171 47.9533 37.771L30.1779 46.0096C28.7954 46.6635 26.3595 46.6635 24.9111 46.0096Z" fill="#FF6F3D"/>
<path fill-rule="evenodd" clip-rule="evenodd" d="M24.9111 35.8748L7.13565 27.6361C5.62145 26.9169 5.62145 25.8053 7.13565 25.1514L13.1925 22.3398L24.9111 27.7669C26.4253 28.4861 28.8612 28.4861 30.3096 27.7669L42.0282 22.3398L48.085 25.1514C49.5992 25.8707 49.5992 26.9823 48.085 27.6361L30.3096 35.8748C28.7953 36.594 26.3595 36.594 24.9111 35.8748Z" fill="#95C038"/>
<path fill-rule="evenodd" clip-rule="evenodd" d="M24.9111 26.0014L7.13565 17.7628C5.62145 17.0435 5.62145 15.9319 7.13565 15.2781L24.9111 7.03944C26.4253 6.32019 28.8612 6.32019 30.3096 7.03944L48.085 15.2781C49.5992 15.9973 49.5992 17.1089 48.085 17.7628L30.3096 26.0014C28.7953 26.6553 26.3595 26.6553 24.9111 26.0014Z" fill="#5DC0E8"/>
<path d="M60.085 26.4189C60.085 23.0116 61.0651 20.44 63.0906 18.7685C65.0509 17.0327 67.4031 16.197 70.0821 16.197C72.7611 16.197 75.048 17.0327 77.0083 18.7685C78.9685 20.5043 79.9486 23.0116 79.9486 26.4832C79.9486 29.8906 78.9685 32.4621 77.0083 34.1336C75.048 35.8695 72.6958 36.7052 70.0821 36.7052C67.4031 36.7052 65.1162 35.8695 63.0906 34.1336C61.0651 32.3978 60.085 29.8263 60.085 26.4189ZM64.3975 26.4189C64.3975 28.7976 64.8548 30.4692 65.7043 31.5621C66.619 32.655 67.5992 33.3622 68.6446 33.6193C68.906 33.6836 69.102 33.7479 69.3634 33.7479C69.5594 33.7479 69.8208 33.8122 70.0168 33.8122C70.2781 33.8122 70.4742 33.8122 70.7355 33.7479C70.9969 33.7479 71.1929 33.6836 71.4543 33.6193C72.4997 33.3622 73.4798 32.655 74.3293 31.5621C75.1787 30.4692 75.6361 28.7334 75.6361 26.4832C75.6361 24.1688 75.1787 22.4973 74.3293 21.4044C73.4798 20.3115 72.4997 19.6043 71.4543 19.3471C71.1929 19.2828 70.9315 19.2186 70.7355 19.2186C70.4742 19.2186 70.2781 19.1543 70.0168 19.1543C69.7554 19.1543 69.5594 19.1543 69.3634 19.2186C69.1673 19.2186 68.906 19.2828 68.6446 19.3471C67.5992 19.6043 66.619 20.3115 65.7043 21.4044C64.8548 22.3687 64.3975 24.1045 64.3975 26.4189Z" fill="white"/>
<path d="M82.105 16.3898H87.4629L94.5198 28.9905L95.5652 31.755H95.6306L95.5652 28.1548V16.3898H99.6817V36.4481H94.3237L87.2669 23.3331L86.2215 21.0829H86.1561L86.2215 24.6188V36.4481H82.105V16.3898Z" fill="white"/>
<path d="M103.929 16.3898H108.045V33.0407H116.147V36.4481H103.929V16.3898Z" fill="white"/>
<path d="M113.599 16.3898H118.369L122.551 23.3974L123.204 24.8117H123.335L123.988 23.3974L128.235 16.3898H132.613L125.23 28.2833V36.4481H121.113V28.219L113.599 16.3898Z" fill="white"/>
<path d="M132.091 26.4189C132.091 23.0116 133.071 20.44 135.096 18.7685C137.057 17.0327 139.409 16.197 142.088 16.197C144.767 16.197 147.054 17.0327 149.014 18.7685C150.974 20.5043 151.954 23.0116 151.954 26.4832C151.954 29.8906 150.974 32.4621 149.014 34.1336C147.054 35.8695 144.702 36.7052 142.088 36.7052C139.409 36.7052 137.122 35.8695 135.096 34.1336C133.136 32.3978 132.091 29.8263 132.091 26.4189ZM136.403 26.4189C136.403 28.7976 136.861 30.4692 137.71 31.5621C138.625 32.655 139.54 33.3622 140.65 33.6193C140.912 33.6836 141.108 33.7479 141.369 33.7479C141.565 33.7479 141.827 33.8122 142.023 33.8122C142.284 33.8122 142.48 33.8122 142.741 33.7479C143.003 33.7479 143.199 33.6836 143.46 33.6193C144.506 33.3622 145.486 32.655 146.335 31.5621C147.185 30.4692 147.642 28.7334 147.642 26.4832C147.642 24.1688 147.185 22.4973 146.335 21.4044C145.486 20.3115 144.506 19.6043 143.46 19.3471C143.199 19.2828 142.937 19.2186 142.741 19.2186C142.48 19.2186 142.284 19.1543 142.023 19.1543C141.761 19.1543 141.565 19.1543 141.369 19.2186C141.173 19.2186 140.912 19.2828 140.65 19.3471C139.605 19.6043 138.625 20.3115 137.71 21.4044C136.861 22.3687 136.403 24.1045 136.403 26.4189Z" fill="white"/>
<path d="M154.829 16.3898H166.198V19.7329H158.946V24.6188H165.872V28.0262H158.946V36.4481H154.829V16.3898Z" fill="white"/>
<path d="M169.27 16.3898H180.639V19.7329H173.386V24.6188H180.312V28.0262H173.386V36.4481H169.27V16.3898Z" fill="white"/>
<path d="M183.057 36.4481V16.3898H187.173V36.4481H183.057Z" fill="white"/>
<path d="M205.311 16.8397V20.3113C204.592 20.0542 203.873 19.8613 203.089 19.7327C202.305 19.6041 201.39 19.5398 200.476 19.5398C198.319 19.5398 196.686 20.1827 195.51 21.5328C194.334 22.8186 193.746 24.4901 193.746 26.4831C193.746 28.4117 194.268 30.019 195.379 31.3048C196.49 32.5905 198.058 33.2977 200.084 33.2977C200.802 33.2977 201.521 33.2334 202.371 33.1692C203.22 33.0406 204.069 32.8477 204.984 32.462L205.246 35.8693C205.115 35.9336 204.919 35.9979 204.723 36.0622C204.462 36.1265 204.2 36.1907 203.873 36.255C203.351 36.3836 202.697 36.4479 201.913 36.5765C201.129 36.6408 200.345 36.7051 199.496 36.7051C199.365 36.7051 199.234 36.7051 199.169 36.7051C199.038 36.7051 198.908 36.7051 198.842 36.7051C196.49 36.5765 194.334 35.6764 192.373 34.1335C190.413 32.5263 189.433 30.019 189.433 26.6759C189.433 23.3972 190.413 20.8256 192.308 19.0255C194.203 17.2254 196.817 16.3254 200.018 16.3254C200.868 16.3254 201.652 16.3254 202.305 16.3897C203.024 16.454 203.677 16.5825 204.396 16.7111C204.527 16.7754 204.723 16.7754 204.854 16.8397C204.984 16.7754 205.115 16.8397 205.311 16.8397Z" fill="white"/>
<path d="M208.578 16.3899H220.797V19.5401H212.76V24.5546H220.013V27.6405H212.76V33.298H220.797V36.4481H208.578V16.3899Z" fill="white"/>
</svg>
