<svg width="24" height="24" viewBox="0 0 24 24" fill="none" xmlns="http://www.w3.org/2000/svg">
<path d="M5.33331 10C4.22665 10 3.33331 10.8933 3.33331 12C3.33331 13.1067 4.22665 14 5.33331 14C6.43998 14 7.33331 13.1067 7.33331 12C7.33331 10.8933 6.43998 10 5.33331 10ZM18.6666 10C17.56 10 16.6666 10.8933 16.6666 12C16.6666 13.1067 17.56 14 18.6666 14C19.7733 14 20.6666 13.1067 20.6666 12C20.6666 10.8933 19.7733 10 18.6666 10ZM12 10C10.8933 10 9.99998 10.8933 9.99998 12C9.99998 13.1067 10.8933 14 12 14C13.1066 14 14 13.1067 14 12C14 10.8933 13.1066 10 12 10Z" fill="#808080"/>
</svg>