<svg width="30" height="40" viewBox="0 0 30 40" fill="none" xmlns="http://www.w3.org/2000/svg">
<path d="M0 3C0 1.34315 1.34315 0 3 0H23L30 7V37C30 38.6569 28.6569 40 27 40H3C1.34315 40 0 38.6569 0 37V3Z" fill="#9E1919"/>
<path fill-rule="evenodd" clip-rule="evenodd" d="M17.0062 15V16.0065H24V15H17.0062ZM17.0062 19V20.0163H24V19H17.0062ZM24 23H17.0062V24.0261H24V23ZM6 28V27.0293H24V28H6ZM7 16H14V23H7V16ZM6 15H7H14H15V16V23V24H14H7H6V23V16V15Z" fill="white"/>
<path d="M23 0L30 7H26C24.3431 7 23 5.65685 23 4V0Z" fill="black" fill-opacity="0.25"/>
</svg>
