<svg width="24" height="24" viewBox="0 0 24 24" fill="none" xmlns="http://www.w3.org/2000/svg">
<path d="M14.326 18.6739C13.8912 18.2391 13.8912 17.5342 14.326 17.0994L20.0993 11.3261C20.5341 10.8913 21.239 10.8913 21.6738 11.3261C22.1086 11.7609 22.1086 12.4658 21.6738 12.9006L15.9006 18.6739C15.4658 19.1087 14.7608 19.1087 14.326 18.6739Z" fill="#444444"/>
<path d="M14.326 5.3261C14.7608 4.8913 15.4658 4.8913 15.9006 5.3261L21.6738 11.0994C22.1086 11.5342 22.1086 12.2391 21.6738 12.6739C21.239 13.1087 20.5341 13.1087 20.0993 12.6739L14.326 6.90063C13.8912 6.46583 13.8912 5.76089 14.326 5.3261Z" fill="#444444"/>
<path d="M9.67385 5.3261C10.1086 5.76089 10.1086 6.46583 9.67385 6.90063L3.90061 12.6739C3.46582 13.1087 2.76088 13.1087 2.32609 12.6739C1.8913 12.2391 1.8913 11.5342 2.32609 11.0994L8.09933 5.3261C8.53412 4.8913 9.23905 4.8913 9.67385 5.3261Z" fill="#444444"/>
<path d="M9.67385 18.6739C9.23905 19.1087 8.53412 19.1087 8.09933 18.6739L2.32609 12.9006C1.8913 12.4658 1.8913 11.7609 2.32609 11.3261C2.76088 10.8913 3.46582 10.8913 3.90061 11.3261L9.67385 17.0994C10.1086 17.5342 10.1086 18.2391 9.67385 18.6739Z" fill="#444444"/>
</svg>
