<svg width="30" height="40" viewBox="0 0 30 40" fill="none" xmlns="http://www.w3.org/2000/svg">
    <path d="M0 2.5A2.5 2.5 0 0 1 2.5 0H21l9 9v28.5a2.5 2.5 0 0 1-2.5 2.5h-25A2.5 2.5 0 0 1 0 37.5z" fill="#D1D5DA"/>
    <path d="m21 0 9 9h-6.5A2.5 2.5 0 0 1 21 6.5zm-5.293 14.293a1 1 0 0 0-1.414 0l-4 4a1 1 0 1 0 1.414 1.414L14 17.414V25a1 1 0 1 0 2 0v-7.586l2.293 2.293a1 1 0 0 0 1.414-1.414z" fill="#646464"/>
    <path d="M8.833 22H11a1 1 0 1 1 0 2H9v4h12v-4h-2a1 1 0 1 1 0-2h2.167c1.012 0 1.833.82 1.833 1.833v4.334C23 29.179 22.18 30 21.167 30H8.833A1.833 1.833 0 0 1 7 28.167v-4.334C7 22.821 7.82 22 8.833 22" fill="#646464"/>
</svg>
