<svg width="24" height="24" viewBox="0 0 24 24" fill="none" xmlns="http://www.w3.org/2000/svg">
<path fill-rule="evenodd" clip-rule="evenodd" d="M4 5C4 3.89543 4.89543 3 6 3H15C16.1046 3 17 3.89543 17 5V7H16V6H5V18H16V17H17V19C17 20.1046 16.1046 21 15 21H6C4.89543 21 4 20.1046 4 19V5ZM12 4H9V5H12V4ZM11 19.5C11 19.7761 10.7761 20 10.5 20C10.2239 20 10 19.7761 10 19.5C10 19.2239 10.2239 19 10.5 19C10.7761 19 11 19.2239 11 19.5Z" fill="#444444"/>
<path fill-rule="evenodd" clip-rule="evenodd" d="M14 8C11.3252 8 8.89946 9.40288 7.10954 11.6815C6.96349 11.8682 6.96349 12.129 7.10954 12.3157C8.89946 14.5971 11.3252 16 14 16C16.6748 16 19.1005 14.5971 20.8905 12.3185C21.0365 12.1318 21.0365 11.871 20.8905 11.6843C19.1005 9.40288 16.6748 8 14 8ZM14.1955 14.9939C12.3863 15.1077 10.8923 13.6166 11.0061 11.8045C11.0995 10.3105 12.3105 9.09949 13.8045 9.00611C15.6137 8.89231 17.1077 10.3834 16.9939 12.1955C16.8976 13.6866 15.6866 14.8976 14.1955 14.9939ZM14.0641 12.998C13.4609 13.0359 12.9625 12.5392 13.0022 11.9359C13.0329 11.4373 13.4375 11.0346 13.9359 11.002C14.5391 10.9641 15.0375 11.4608 14.9978 12.0641C14.9653 12.5645 14.5607 12.9673 14.0641 12.998Z" fill="#444444"/>
</svg>
