<svg width="24" height="24" viewBox="0 0 24 24" fill="none" xmlns="http://www.w3.org/2000/svg">
<path fill-rule="evenodd" clip-rule="evenodd" d="M4 5C4 3.89543 4.89543 3 6 3H15C16.1046 3 17 3.89543 17 5V7H16V6H5V18H16V17H17V19C17 20.1046 16.1046 21 15 21H6C4.89543 21 4 20.1046 4 19V5ZM12 4H9V5H12V4ZM11 19.5C11 19.7761 10.7761 20 10.5 20C10.2239 20 10 19.7761 10 19.5C10 19.2239 10.2239 19 10.5 19C10.7761 19 11 19.2239 11 19.5Z" fill="#444444"/>
<path fill-rule="evenodd" clip-rule="evenodd" d="M12 16H14L14.6464 15.3536L12.6464 13.3536L12 14V16ZM15.3536 14.6464L21 9V8H20V7H19L13.3536 12.6464L15.3536 14.6464Z" fill="#444444"/>
</svg>
