<svg width="24" height="24" viewBox="0 0 24 24" fill="none" xmlns="http://www.w3.org/2000/svg">
<path fill-rule="evenodd" clip-rule="evenodd" d="M12 6C8.17879 6 4.71351 8.10432 2.15649 11.5223C1.94784 11.8023 1.94784 12.1935 2.15649 12.4736C4.71351 15.8957 8.17879 18 12 18C15.8212 18 19.2865 15.8957 21.8435 12.4777C22.0522 12.1977 22.0522 11.8065 21.8435 11.5264C19.2865 8.10432 15.8212 6 12 6ZM12.2607 15.9919C9.84844 16.1436 7.8564 14.1554 8.00813 11.7393C8.13264 9.74729 9.74728 8.13265 11.7393 8.00815C14.1516 7.85641 16.1436 9.84456 15.9919 12.2607C15.8635 14.2488 14.2488 15.8635 12.2607 15.9919ZM12.1282 13.9959C10.9219 14.0718 9.92498 13.0783 10.0044 11.8718C10.0658 10.8747 10.8749 10.0691 11.8718 10.0041C13.0781 9.92821 14.075 10.9217 13.9956 12.1282C13.9305 13.1289 13.1215 13.9345 12.1282 13.9959Z" fill="#444444"/>
</svg>
