<svg width="30" height="40" viewBox="0 0 30 40" fill="none" xmlns="http://www.w3.org/2000/svg"><path d="M0 2.5C0 1.11929 1.11929 0 2.5 0H21l9 9v28.5c0 1.3807-1.1193 2.5-2.5 2.5h-25C1.11929 40 0 38.8807 0 37.5v-35Z" fill="#F36700"/><path d="m21 0 9 9h-7.3636C21.7326 9 21 8.26737 21 7.36364V0Z" fill="#000" fill-opacity=".25"/><rect x="6" y="16" width="18" height="1.5" rx=".75" fill="#fff"/><rect x="6" y="28" width="18" height="1.5" rx=".75" fill="#fff"/><rect x="7.5" y="16" width="13.5" height="1.5" rx=".75" transform="rotate(90 7.5 16)" fill="#fff"/><rect x="24" y="16" width="13.5" height="1.5" rx=".75" transform="rotate(90 24 16)" fill="#fff"/></svg>