<svg width="30" height="40" viewBox="0 0 30 40" fill="none" xmlns="http://www.w3.org/2000/svg"><path d="M0 2.5C0 1.11929 1.11929 0 2.5 0H21l9 9v28.5c0 1.3807-1.1193 2.5-2.5 2.5h-25C1.11929 40 0 38.8807 0 37.5v-35Z" fill="#3AA133"/><path d="m21 0 9 9h-7.3636C21.7326 9 21 8.26737 21 7.36364V0Z" fill="#000" fill-opacity=".25"/><path fill-rule="evenodd" clip-rule="evenodd" d="M6.75 16c-.41421 0-.75.3358-.75.75v11.5c0 .0877.01504.1718.04268.25-.02764.0782-.04268.1623-.04268.25 0 .4142.33579.75.75.75h16.5c.4142 0 .75-.3358.75-.75 0-.0877-.015-.1718-.0427-.25.0277-.0782.0427-.1623.0427-.25v-11.5c0-.4142-.3358-.75-.75-.75H6.75Zm5.75 1.5h-5V22h5v-4.5ZM14 22v-4.5h8.5V22H14Zm-1.5 1.5h-5V28h5v-4.5ZM14 28v-4.5h8.5V28H14Z" fill="#fff"/></svg>