<svg width="16" height="16" viewBox="0 0 16 16" fill="none" xmlns="http://www.w3.org/2000/svg">
    <path d="M13.5 3.707V15a.5.5 0 0 1-.5.5H3a.5.5 0 0 1-.5-.5V1A.5.5 0 0 1 3 .5h7.293z" fill="#fff" stroke="#BBB"/>
    <path d="M9.5 1v2.7c0 .28 0 .42.055.527a.5.5 0 0 0 .218.218c.107.055.247.055.527.055H13" stroke="#BBB"/>
    <path d="M7.36 5.777c0 1.085-.31 2.363-.833 3.543-.526 1.185-1.235 2.198-1.974 2.796l.803 1.109c1.992-1.342 4.198-2.262 6.333-1.954L12 9.938c-1.819-.612-3.278-2.449-3.278-4.16zm.888 2.84a6.7 6.7 0 0 0 1.161 1.35c-.668.122-1.323.32-1.957.573q.17-.322.316-.657c.183-.41.344-.836.48-1.267" fill="#E54D39"/>
</svg>
