<svg width="16" height="16" viewBox="0 0 16 16" fill="none" xmlns="http://www.w3.org/2000/svg"><path d="M2.5 1c0-.276142.22386-.5.5-.5h7.2929L13.5 3.70711V15c0 .2761-.2239.5-.5.5H3c-.27614 0-.5-.2239-.5-.5V1Z" fill="#fff" stroke="#BBB"/><path d="M9.5 1v2.7c0 .28003 0 .42004.0545.527.04793.09408.12442.17057.2185.2185.10696.0545.247.0545.527.0545H13" stroke="#BBB"/><path d="M5.25 9c-.13807 0-.25161-.11236-.2344-.24935.02224-.17697.0681-.35054.13664-.51602.10051-.24265.24783-.46313.43355-.64884.18571-.18572.40619-.33304.64884-.43355.16548-.06854.33905-.1144.51602-.13664C6.88764 6.99839 7 7.11193 7 7.25v1.5c0 .13807-.11193.25-.25.25h-1.5Z" fill="#ED771C"/><path d="M5.25 10c-.13807 0-.25108.1121-.23959.2497.0422.5053.21197.9932.49518 1.417.32965.4934.79818.8779 1.34636 1.1049.54818.2271 1.15138.2865 1.73332.1708.58194-.1158 1.11649-.4015 1.53603-.8211.4196-.4195.7053-.9541.8211-1.536.1157-.582.0563-1.18517-.1708-1.73335-.227-.54818-.6115-1.01671-1.10489-1.34636-.42386-.28321-.91169-.45298-1.41699-.49518C8.11213 6.99892 8 7.11193 8 7.25v2.5c0 .13807-.11193.25-.25.25h-2.5Z" fill="#F8C9A4"/><path d="M10 9h5v5h-5V9Z" fill="#ED771C"/><path fill-rule="evenodd" clip-rule="evenodd" d="M11 10h2.7305v2H12v1h-1v-3Z" fill="#fff"/></svg>