<svg width="24" height="23" viewBox="0 0 24 23" fill="none" xmlns="http://www.w3.org/2000/svg">
    <path fill-rule="evenodd" clip-rule="evenodd" d="M10.5332 22.2243L0.632544 17.5921C-0.210848 17.1877 -0.210848 16.5627 0.632544 16.1951L4.07945 14.5775L10.4966 17.5921C11.34 17.9965 12.6967 17.9965 13.5034 17.5921L19.9206 14.5775L23.3675 16.1951C24.2108 16.5995 24.2108 17.2245 23.3675 17.5921L13.4668 22.2243C12.6967 22.592 11.34 22.592 10.5332 22.2243Z" fill="#FF6F3D"/>
    <path fill-rule="evenodd" clip-rule="evenodd" d="M10.5011 16.4922L0.630617 11.8546C-0.210206 11.4497 -0.210206 10.824 0.630617 10.456L3.99391 8.87329L10.5011 11.9282C11.342 12.3331 12.6946 12.3331 13.4989 11.9282L20.0061 8.87329L23.3694 10.456C24.2102 10.8608 24.2102 11.4865 23.3694 11.8546L13.4989 16.4922C12.658 16.897 11.3054 16.897 10.5011 16.4922Z" fill="#95C038"/>
    <path fill-rule="evenodd" clip-rule="evenodd" d="M10.5011 10.8195L0.630617 6.24863C-0.210206 5.84959 -0.210206 5.23289 0.630617 4.87013L10.5011 0.299281C11.342 -0.0997605 12.6946 -0.0997605 13.4989 0.299281L23.3694 4.87013C24.2102 5.26917 24.2102 5.88587 23.3694 6.24863L13.4989 10.8195C12.658 11.1822 11.3054 11.1822 10.5011 10.8195Z" fill="#5DC0E8"/>
</svg>
