<svg width="24" height="24" viewBox="0 0 24 24" fill="none" xmlns="http://www.w3.org/2000/svg">
<rect width="10" height="2" rx="1" transform="matrix(1.19249e-08 -1 -1 -1.19249e-08 13 13)" fill="#444444"/>
<path d="M6.57692 19.6154C6.30247 20.2741 6.78642 21 7.5 21H16.5C17.2136 21 17.6975 20.2741 17.4231 19.6154L15.7564 15.6154C15.6011 15.2427 15.237 15 14.8333 15H9.16667C8.76297 15 8.39886 15.2427 8.24359 15.6154L6.57692 19.6154Z" fill="#444444"/>
<path d="M15 14C15 13.2044 14.6839 12.4413 14.1213 11.8787C13.5587 11.3161 12.7956 11 12 11C11.2044 11 10.4413 11.3161 9.87868 11.8787C9.31607 12.4413 9 13.2044 9 14L12 14H15Z" fill="#444444"/>
</svg>
