<svg width="30" height="40" viewBox="0 0 30 40" fill="none" xmlns="http://www.w3.org/2000/svg">
<path d="M0 3C0 1.34315 1.34315 0 3 0H22.9167L30 7.08333V37C30 38.6569 28.6569 40 27 40H3C1.34315 40 0 38.6569 0 37V3Z" fill="#007267"/>
<path d="M22.9165 0L29.9998 7.08333H25.9165C24.2597 7.08333 22.9165 5.74019 22.9165 4.08333V0Z" fill="#00524A"/>
<rect x="5.5" y="12.5" width="19" height="14" stroke="white"/>
<path d="M5 19L6 18V27H5V19Z" fill="#007267"/>
<path opacity="0.1" d="M5 12H21.1505H25V14.8125V27H14.9661H12.3817H5V12Z" fill="white"/>
<path d="M12.7574 15.8485C13.226 15.3798 13.9858 15.3798 14.4544 15.8485L16.1515 17.5455C16.6201 18.0141 16.6201 18.7739 16.1515 19.2426L9.36345 26.0306L5.12061 26.8793L5.96934 22.6365L12.7574 15.8485Z" fill="white"/>
<path fill-rule="evenodd" clip-rule="evenodd" d="M13.4225 18.7304L11.3012 20.8518C10.7154 21.4375 9.95562 21.6275 9.60415 21.276V21.276L12.7861 18.094L13.4225 18.7304Z" fill="#198076"/>
<path fill-rule="evenodd" clip-rule="evenodd" d="M15.2436 20.7274L11.8494 17.3333L12.4858 16.6969L15.88 20.091L15.2436 20.7274Z" fill="#198076"/>
</svg>
