<svg width="24" height="24" viewBox="0 0 24 24" fill="none" xmlns="http://www.w3.org/2000/svg">
<path fill-rule="evenodd" clip-rule="evenodd" d="M14.4285 13C14.4102 13 14 13 14 13.5V15H6C5.44772 15 5 15.4477 5 16V17C5 17.5523 5.44771 18 6 18H14V19.5C14 20 14.3816 20 14.4285 20C14.6359 20 15.0099 19.9113 15.2172 19.7363L18.6207 17.0833C19.1264 16.6566 19.1264 16.3434 18.6207 15.9167L15.2172 13.2637C15.0099 13.0887 14.6359 13 14.4285 13Z" fill="#444444"/>
<path fill-rule="evenodd" clip-rule="evenodd" d="M9.5715 4C9.58984 4 10 4 10 4.50002V6H18C18.5523 6 19 6.44772 19 7V8C19 8.55228 18.5523 9 18 9H10V10.5C10 11 9.61841 11 9.57151 11C9.36409 11 8.99012 10.9113 8.78279 10.7363L5.37934 8.08333C4.87356 7.65662 4.87356 7.34338 5.37934 6.91667L8.78279 4.26366C8.99012 4.08874 9.36409 4 9.5715 4Z" fill="#444444"/>
</svg>
