<svg width="30" height="40" viewBox="0 0 30 40" fill="none" xmlns="http://www.w3.org/2000/svg"><path d="M0 2.5C0 1.11929 1.11929 0 2.5 0H21l9 9v28.5c0 1.3807-1.1193 2.5-2.5 2.5h-25C1.11929 40 0 38.8807 0 37.5v-35Z" fill="#E54D39"/><rect x="6" y="28" width="18" height="1.5" rx=".75" fill="#fff"/><path fill-rule="evenodd" clip-rule="evenodd" d="M6.75 16c-.41421 0-.75.3358-.75.75v6c0 .3624.25709.6648.59885.7348.04882.01.09937.0152.15115.0152h6.5c.4142 0 .75-.3358.75-.75v-6c0-.4142-.3358-.75-.75-.75h-6.5Zm5.75 1.5h-5V22h5v-4.5Z" fill="#fff"/><rect x="18" y="22" width="6" height="1.5" rx=".75" fill="#fff"/><rect x="18" y="16" width="6" height="1.5" rx=".75" fill="#fff"/><path d="m21 0 9 9h-7.3636C21.7326 9 21 8.26737 21 7.36364V0Z" fill="#000" fill-opacity=".25"/></svg>